<svg width="70" height="70" viewBox="0 0 70 70" fill="none" xmlns="http://www.w3.org/2000/svg">
<circle r="35" transform="matrix(-1 0 0 1 35 35)" fill="white"/>
<path d="M44.7462 17.1927C45.1572 16.799 45.1572 16.1422 44.7462 15.7485L43.6128 14.6627C43.2261 14.2922 42.616 14.2922 42.2293 14.6627L21 35L22.8872 36.8079C23.2739 37.1784 23.884 37.1784 24.2707 36.8079L44.7462 17.1927Z" fill="#39071F"/>
<path d="M42.2293 55.3373C42.616 55.7078 43.2261 55.7078 43.6128 55.3373L44.7462 54.2515C45.1572 53.8578 45.1572 53.201 44.7462 52.8073L24.2707 33.1921C23.884 32.8216 23.2739 32.8216 22.8872 33.1921L21 35L42.2293 55.3373Z" fill="#39071F"/>
</svg>
