<svg width="185" height="34" fill="none" xmlns="http://www.w3.org/2000/svg"><path fill-rule="evenodd" clip-rule="evenodd" d="M7.096 20.301l.507.11 2.805 1.654.17.488-.035 3.102-.337.378-2.822 1.448-.524-.11-2.805-1.669-.17-.488.035-3.102.337-.362 2.84-1.449zm3.769 6.503l.524.126 2.788 1.653.186.489-.034 3.101-.354.378L11.153 34l-.524-.126L8 32.5l-.294-.5v-3.37l.338-.377 2.821-1.449zm3.989-6.439l.524.126 2.788 1.653.186.488-.034 3.102-.355.378-2.822 1.449-.524-.126-2.788-1.653-.169-.489.034-3.102.338-.377 2.822-1.45zm-4.141-6.757l.524.127 2.788 1.653.17.488-.018 3.102-.355.378L11 20.804l-.523-.11-2.788-1.669-.17-.488.017-3.102.355-.362 2.822-1.465zm-7.519-.267l.523.11 2.789 1.654.185.488-.033 3.102-.355.378L3.48 20.52l-.507-.11-2.805-1.669L0 18.254l.034-3.102.338-.362 2.822-1.449zm14.972.441l.524.11 2.788 1.654.186.488-.034 3.102-.355.378-2.822 1.448-.524-.11-2.788-1.653-.169-.488.034-3.102.338-.378 2.822-1.449zM7.132 6.824l.523.11 2.805 1.653.17.488-.034 3.102-.355.378-2.822 1.449-.507-.11-2.805-1.67-.169-.488.034-3.102.338-.362 2.822-1.448zm7.722.09l.524.11 2.788 1.654.169.488-.017 3.102-.355.378-2.822 1.449-.524-.11-2.788-1.654-.169-.488.017-3.102.355-.378 2.822-1.449zm-4.377-5.081c.321-.74-.81-1.401-1.3-1.527-.795-.205-1.42.236-2.012.803-1.588 1.448-.81 3.716 1.268 4.77 3.227 1.591 6.37-.377 8.837-1.889 1.64-.881 3.971-3.054 5.864-2.094.642.315.946 1.118.186 1.622.675.504 1.52-.252 1.655-1.055.153-.835-.422-1.638-1.013-2.031-1.285-.835-2.924-.33-4.157.425-1.453.929-2.89 2.44-4.546 3.29-1.267.646-2.788 1.308-4.292 1.386-1.25.11-3.447-.803-3.565-2.314C7.3 1.376 9.328.936 10.427 1.912c.017-.016.033-.047.05-.079z" fill="#fff"/><path d="M41.933 13.347c0 1.02-.183 1.776-.516 2.27-.35.495-.784.82-1.3.974.516.123.95.448 1.3.942.333.494.516 1.251.516 2.27v9.84c0 .711-.133 1.314-.366 1.824-.234.51-.55.927-.934 1.266-.366.34-.8.587-1.283.742a4.91 4.91 0 0 1-1.5.247H33V.278h4.85a4.91 4.91 0 0 1 1.5.247 3.42 3.42 0 0 1 1.283.757c.384.355.7.819.934 1.375.233.556.366 1.22.366 1.977v8.713zm-2.383 6.596c0-1.684-.533-2.534-1.6-2.534h-2.583v14.444h2.283c.483 0 .917-.216 1.317-.618.383-.417.583-1.066.583-1.916v-9.376zm-1.6-4.217c1.067 0 1.6-.835 1.6-2.534V4.974c0-1.02-.2-1.745-.583-2.178-.4-.433-.834-.649-1.317-.649h-2.283v13.579h2.583zM46.267.278v31.76h4.483v1.684h-6.867V.278h2.384zm11.65 23.913H54.15l-.967 9.53h-2.116l3.5-33.443h3.1l3.566 33.444H58.9l-.983-9.531zm-3.55-1.668h3.35l-1.65-15.88h-.05l-1.65 15.88zM66.533 34a5.01 5.01 0 0 1-1.466-.232c-.5-.17-.934-.417-1.317-.772a4.057 4.057 0 0 1-.917-1.36c-.25-.556-.366-1.22-.366-1.992V4.356c0-.772.116-1.436.366-1.993.234-.556.55-1.004.917-1.359a3.589 3.589 0 0 1 1.317-.772c.5-.155 1-.232 1.466-.232h.784c.483 0 .966.077 1.45.232.466.17.916.417 1.316.772.384.355.7.803.95 1.36.234.556.35 1.22.35 1.992v9.423h-2.366V4.681c0-1.02-.2-1.746-.6-2.179-.384-.417-.834-.633-1.3-.633h-.367c-.483 0-.917.216-1.317.633-.4.433-.6 1.16-.6 2.179v24.638c0 1.02.2 1.746.6 2.178.4.433.834.634 1.317.634h.367c.466 0 .916-.201 1.3-.634.4-.432.6-1.158.6-2.178v-9.145h2.366v9.47c0 .772-.116 1.436-.35 1.993a4.122 4.122 0 0 1-.95 1.359c-.4.355-.85.602-1.316.772a4.74 4.74 0 0 1-1.45.232h-.784zm11.1-17.687l5.317 17.409h-2.217l-4.75-14.444h-.05v14.444h-2.366V.278h2.366v13.965h.05l4.9-13.965h2.167l-5.417 16.035zm15.684-2.966c0 1.02-.167 1.776-.517 2.27-.333.495-.767.82-1.283.974.516.123.95.448 1.283.942.35.494.517 1.251.517 2.27v9.84c0 .711-.117 1.314-.35 1.824-.25.51-.55.927-.934 1.266a3.66 3.66 0 0 1-1.283.742 4.91 4.91 0 0 1-1.5.247H84.4V.278h4.85a4.91 4.91 0 0 1 1.5.247 3.7 3.7 0 0 1 1.283.757c.384.355.684.819.934 1.375.233.556.35 1.22.35 1.977v8.713zm-2.367 6.596c0-1.684-.533-2.534-1.6-2.534h-2.583v14.444h2.266c.484 0 .934-.216 1.317-.618.4-.417.6-1.066.6-1.916v-9.376zm-1.6-4.217c1.067 0 1.6-.835 1.6-2.534V4.974c0-1.02-.2-1.745-.6-2.178-.383-.433-.833-.649-1.317-.649h-2.266v13.579h2.583zm8.3-13.579v14.011h3.717v1.684H97.65v14.01h5.017v1.87h-7.384V.278h7.167v1.87h-4.8zm15.65 11.678c0 1.02-.183 1.777-.517 2.271-.35.495-.783.819-1.3.974.517.123.95.447 1.3.942.334.494.517 1.251.517 2.27v8.265c0 1.73.05 2.95.167 3.692.133.726.216 1.22.283 1.483h-2.367c-.166-.417-.3-1.004-.366-1.777-.067-.756-.1-1.9-.1-3.398v-8.079c0-1.715-.534-2.58-1.6-2.58h-2.584v15.834h-2.366V.278h4.85c1.1 0 2.05.37 2.866 1.081.8.726 1.217 1.808 1.217 3.275v9.192zm-3.983 2.38c1.066 0 1.6-.835 1.6-2.534V4.974c0-1.02-.2-1.745-.6-2.178-.384-.433-.834-.649-1.3-.649h-2.284v14.058h2.584zm15.383-2.38c0 1.02-.183 1.777-.517 2.271-.35.495-.783.819-1.3.974.517.123.95.447 1.3.942.334.494.517 1.251.517 2.27v8.265c0 1.73.05 2.95.183 3.692.117.726.2 1.22.284 1.483h-2.384c-.166-.417-.283-1.004-.35-1.777-.083-.756-.116-1.9-.116-3.398v-8.079c0-1.715-.534-2.58-1.6-2.58h-2.567v15.834h-2.383V.278h4.85c1.1 0 2.05.37 2.866 1.081.8.726 1.217 1.808 1.217 3.275v9.192zm-3.983 2.38c1.066 0 1.6-.835 1.6-2.534V4.974c0-1.02-.2-1.745-.584-2.178-.4-.433-.833-.649-1.316-.649h-2.267v14.058h2.567zm11.466 4.603l-.05 12.914h-2.383V20.808L125.883.278h2.417l2.583 15.401h.1l2.584-15.4H136l-3.817 20.529zM152.706.294v33.428h-2.378v-15.88h-3.934v15.88H144V.294h2.394v15.864h3.934V.294h2.378zm4.721 0v33.428h-2.378V.294h2.378zm4.671 0v31.744h4.503v1.684h-6.897V.294h2.394zm8.186 0v31.744h4.504v1.684h-6.881V.294h2.377zm12.288 13.485V4.681c0-1.02-.2-1.746-.585-2.163-.402-.433-.838-.649-1.306-.649h-.369c-.468 0-.904.216-1.305.649-.386.417-.586 1.143-.586 2.163v4.742c0 1.498.351 2.827 1.038 3.986a35.813 35.813 0 0 0 2.26 3.398 41.993 41.993 0 0 1 2.243 3.398c.703 1.159 1.038 2.518 1.038 4.048v5.406c0 .757-.117 1.421-.352 1.978-.251.556-.569 1.02-.954 1.359a3.222 3.222 0 0 1-1.306.772 4.78 4.78 0 0 1-1.506.232h-.72c-.503 0-.988-.077-1.49-.232a3.65 3.65 0 0 1-1.356-.772c-.402-.34-.72-.803-.971-1.36-.235-.556-.352-1.22-.352-1.977v-9.423h2.227v9.083c0 1.02.217 1.746.636 2.178.435.433.887.65 1.356.65h.368c.469 0 .921-.217 1.356-.65.419-.432.636-1.158.636-2.178v-4.788c0-.989-.167-1.9-.502-2.72a12.326 12.326 0 0 0-1.205-2.363 28.686 28.686 0 0 0-1.591-2.209 23.735 23.735 0 0 1-1.573-2.224 13.508 13.508 0 0 1-1.222-2.44c-.335-.85-.486-1.793-.486-2.812V4.356c0-.772.117-1.436.352-1.993a4.351 4.351 0 0 1 .937-1.359 3.677 3.677 0 0 1 1.339-.772 5.083 5.083 0 0 1 1.49-.232h.57c.485 0 .971.077 1.456.232.486.17.938.417 1.323.772.402.355.736.803.971 1.36.251.556.368 1.22.368 1.992v9.423h-2.227z" fill="#fff"/></svg>