<svg width="595" height="133" viewBox="0 0 595 133" fill="none" xmlns="http://www.w3.org/2000/svg">
<path d="M35.1076 52.1986C35.1076 56.1859 34.3903 59.1463 33.0862 61.0796C31.7169 63.0128 30.0215 64.2815 28.0001 64.8857C30.0215 65.369 31.7169 66.6377 33.0862 68.571C34.3903 70.5043 35.1076 73.4646 35.1076 77.452V115.936C35.1076 118.715 34.586 121.072 33.6731 123.065C32.7602 125.059 31.5212 126.69 30.0215 128.019C28.5869 129.348 26.8915 130.315 25.0005 130.919C23.1096 131.523 21.1533 131.886 19.1319 131.886H0.156738V1.08747H19.1319C21.1533 1.08747 23.1096 1.44996 25.0005 2.05411C26.8915 2.65826 28.5869 3.68531 30.0215 5.01444C31.5212 6.40399 32.7602 8.21644 33.6731 10.3914C34.586 12.5663 35.1076 15.1642 35.1076 18.1245V52.1986ZM25.783 77.9958C25.783 71.4105 23.6964 68.0877 19.5232 68.0877H9.41611V124.576H18.3495C20.2404 124.576 21.9358 123.73 23.5008 122.159C25.0006 120.528 25.783 117.99 25.783 114.668V77.9958ZM19.5232 61.5025C23.6964 61.5025 25.783 58.24 25.783 51.5944V19.4536C25.783 15.4662 25.0006 12.6267 23.5008 10.9351C21.9358 9.24349 20.2404 8.39768 18.3495 8.39768H9.41611V61.5025H19.5232ZM52.0614 1.08747V125.301H69.602V131.886H42.7368V1.08747H52.0614ZM97.641 94.6099H82.9042L79.1222 131.886H70.841L84.5344 1.08747H96.6629L110.617 131.886H101.488L97.641 94.6099ZM83.7519 88.0851H96.8585L90.403 25.9784H90.2074L83.7519 88.0851ZM131.353 132.973C129.527 132.973 127.571 132.671 125.615 132.067C123.659 131.403 121.963 130.436 120.463 129.046C119.029 127.657 117.79 125.905 116.877 123.73C115.899 121.555 115.442 118.957 115.442 115.936V17.037C115.442 14.0163 115.899 11.4184 116.877 9.24349C117.79 7.06855 119.029 5.31652 120.463 3.92697C121.963 2.53743 123.659 1.57079 125.615 0.906225C127.571 0.302075 129.527 0 131.353 0H134.418C136.309 0 138.2 0.302075 140.091 0.906225C141.916 1.57079 143.677 2.53743 145.242 3.92697C146.742 5.31652 147.981 7.06855 148.959 9.24349C149.872 11.4184 150.328 14.0163 150.328 17.037V53.8902H141.069V18.3057C141.069 14.3184 140.286 11.4788 138.721 9.78723C137.222 8.15602 135.461 7.31021 133.635 7.31021H132.201C130.31 7.31021 128.614 8.15602 127.049 9.78723C125.484 11.4788 124.702 14.3184 124.702 18.3057V114.668C124.702 118.655 125.484 121.495 127.049 123.186C128.614 124.878 130.31 125.663 132.201 125.663H133.635C135.461 125.663 137.222 124.878 138.721 123.186C140.286 121.495 141.069 118.655 141.069 114.668V78.902H150.328V115.936C150.328 118.957 149.872 121.555 148.959 123.73C147.981 125.905 146.742 127.657 145.242 129.046C143.677 130.436 141.916 131.403 140.091 132.067C138.2 132.671 136.309 132.973 134.418 132.973H131.353ZM174.781 63.7982L195.582 131.886H186.909L168.325 75.3979H168.13V131.886H158.87V1.08747H168.13V55.7026H168.325L187.496 1.08747H195.973L174.781 63.7982ZM236.14 52.1986C236.14 56.1859 235.488 59.1463 234.119 61.0796C232.815 63.0128 231.119 64.2815 229.098 64.8857C231.119 65.369 232.815 66.6377 234.119 68.571C235.488 70.5043 236.14 73.4646 236.14 77.452V115.936C236.14 118.715 235.684 121.072 234.771 123.065C233.793 125.059 232.619 126.69 231.119 128.019C229.62 129.348 227.924 130.315 226.098 130.919C224.207 131.523 222.251 131.886 220.23 131.886H201.255V1.08747H220.23C222.251 1.08747 224.207 1.44996 226.098 2.05411C227.924 2.65826 229.62 3.68531 231.119 5.01444C232.619 6.40399 233.793 8.21644 234.771 10.3914C235.684 12.5663 236.14 15.1642 236.14 18.1245V52.1986ZM226.881 77.9958C226.881 71.4105 224.794 68.0877 220.621 68.0877H210.514V124.576H219.382C221.273 124.576 223.034 123.73 224.534 122.159C226.098 120.528 226.881 117.99 226.881 114.668V77.9958ZM220.621 61.5025C224.794 61.5025 226.881 58.24 226.881 51.5944V19.4536C226.881 15.4662 226.098 12.6267 224.534 10.9351C223.034 9.24349 221.273 8.39768 219.382 8.39768H210.514V61.5025H220.621ZM253.094 8.39768V63.1941H267.635V69.7793H253.094V124.576H272.721V131.886H243.835V1.08747H271.874V8.39768H253.094ZM314.323 54.0714C314.323 58.0588 313.606 61.0191 312.302 62.9524C310.933 64.8857 309.237 66.1544 307.216 66.7586C309.237 67.2419 310.933 68.5106 312.302 70.4439C313.606 72.3772 314.323 75.3375 314.323 79.3249V111.647C314.323 118.413 314.519 123.186 314.975 126.086C315.497 128.926 315.823 130.859 316.084 131.886H306.825C306.173 130.255 305.651 127.959 305.39 124.938C305.129 121.978 304.999 117.507 304.999 111.647V80.0499C304.999 73.3438 302.912 69.9606 298.739 69.9606H288.632V131.886H279.372V1.08747H298.348C302.651 1.08747 306.368 2.53743 309.563 5.31652C312.693 8.15602 314.323 12.3851 314.323 18.1245V54.0714ZM298.739 63.3753C302.912 63.3753 304.999 60.1129 304.999 53.4673V19.4536C304.999 15.4662 304.216 12.6267 302.651 10.9351C301.152 9.24349 299.391 8.39768 297.565 8.39768H288.632V63.3753H298.739ZM358.925 54.0714C358.925 58.0588 358.208 61.0191 356.903 62.9524C355.534 64.8857 353.839 66.1544 351.817 66.7586C353.839 67.2419 355.534 68.5106 356.903 70.4439C358.208 72.3772 358.925 75.3375 358.925 79.3249V111.647C358.925 118.413 359.12 123.186 359.642 126.086C360.099 128.926 360.425 130.859 360.751 131.886H351.426C350.774 130.255 350.318 127.959 350.057 124.938C349.731 121.978 349.6 117.507 349.6 111.647V80.0499C349.6 73.3438 347.514 69.9606 343.34 69.9606H333.299V131.886H323.974V1.08747H342.949C347.253 1.08747 350.97 2.53743 354.165 5.31652C357.295 8.15602 358.925 12.3851 358.925 18.1245V54.0714ZM343.34 63.3753C347.514 63.3753 349.6 60.1129 349.6 53.4673V19.4536C349.6 15.4662 348.818 12.6267 347.318 10.9351C345.753 9.24349 344.058 8.39768 342.167 8.39768H333.299V63.3753H343.34ZM388.203 81.379L388.007 131.886H378.683V81.379L363.555 1.08747H373.01L383.117 61.3212H383.508L393.615 1.08747H403.135L388.203 81.379Z" fill="white"/>
<path d="M468.494 1.14792V131.886H459.193V69.7793H443.801V131.886H434.435V1.14792H443.801V63.1941H459.193V1.14792H468.494ZM486.965 1.14792V131.886H477.664V1.14792H486.965ZM505.24 1.14792V125.301H522.859V131.886H495.873V1.14792H505.24ZM537.269 1.14792V125.301H554.889V131.886H527.968V1.14792H537.269ZM585.346 53.8902V18.3058C585.346 14.3184 584.56 11.4789 583.053 9.84767C581.482 8.15605 579.779 7.31024 577.945 7.31024H576.504C574.67 7.31024 572.967 8.15605 571.395 9.84767C569.888 11.4789 569.102 14.3184 569.102 18.3058V36.8532C569.102 42.7134 570.478 47.9091 573.163 52.4402C575.849 57.0318 578.796 61.4421 582.005 65.7315C585.149 70.021 588.097 74.4917 590.782 79.0228C593.533 83.554 594.843 88.8705 594.843 94.8516V115.997C594.843 118.957 594.385 121.555 593.468 123.73C592.485 125.905 591.241 127.717 589.734 129.046C588.293 130.436 586.59 131.463 584.625 132.067C582.791 132.671 580.827 132.973 578.731 132.973H575.914C573.949 132.973 572.05 132.671 570.085 132.067C568.12 131.463 566.351 130.436 564.779 129.046C563.207 127.717 561.963 125.905 560.98 123.73C560.063 121.555 559.605 118.957 559.605 115.997V79.1437H568.316V114.668C568.316 118.655 569.168 121.495 570.805 123.186C572.508 124.878 574.277 125.724 576.111 125.724H577.552C579.386 125.724 581.154 124.878 582.857 123.186C584.494 121.495 585.346 118.655 585.346 114.668V95.939C585.346 92.0725 584.691 88.508 583.381 85.306C582.137 82.0436 580.564 78.9624 578.665 76.0625C576.766 73.1022 574.67 70.2627 572.443 67.4232C570.216 64.6441 568.185 61.7441 566.286 58.7234C564.386 55.7631 562.814 52.5611 561.504 49.1778C560.194 45.855 559.605 42.1697 559.605 38.1823V17.0371C559.605 14.0163 560.063 11.4185 560.98 9.24352C561.963 7.06858 563.207 5.31655 564.648 3.927C566.155 2.53746 567.923 1.57082 569.888 0.906255C571.853 0.302105 573.818 3.05176e-05 575.718 3.05176e-05H577.945C579.844 3.05176e-05 581.743 0.302105 583.643 0.906255C585.542 1.57082 587.311 2.53746 588.817 3.927C590.389 5.31655 591.699 7.06858 592.616 9.24352C593.599 11.4185 594.057 14.0163 594.057 17.0371V53.8902H585.346Z" fill="white"/>
</svg>
