<svg width="98" height="135" viewBox="0 0 98 135" fill="none" xmlns="http://www.w3.org/2000/svg">
<path d="M43.6621 37.7046C43.6621 36.2615 44.4233 34.9291 45.6568 34.2131L55.5538 28.4685C56.7709 27.7621 58.265 27.7621 59.4821 28.4685L69.3791 34.2131C70.6126 34.9291 71.3738 36.2615 71.3738 37.7046V49.1223C71.3738 50.5653 70.6126 51.8978 69.3791 52.6137L59.4821 58.3584C58.265 59.0648 56.7709 59.0648 55.5538 58.3584L45.6568 52.6137C44.4233 51.8978 43.6621 50.5653 43.6621 49.1223V37.7046Z" fill="white"/>
<path d="M14.6328 37.7046C14.6328 36.2615 15.394 34.9291 16.6275 34.2131L26.5245 28.4685C27.7416 27.7621 29.2357 27.7621 30.4528 28.4685L40.3498 34.2131C41.5833 34.9291 42.3445 36.2615 42.3445 37.7046V49.1223C42.3445 50.5653 41.5833 51.8978 40.3498 52.6137L30.4528 58.3584C29.2357 59.0648 27.7416 59.0648 26.5245 58.3584L16.6275 52.6137C15.394 51.8978 14.6328 50.5653 14.6328 49.1223V37.7046Z" fill="white"/>
<path d="M43.6621 88.3134C43.6621 86.8703 44.4233 85.5379 45.6568 84.8219L55.5538 79.0773C56.7709 78.3709 58.265 78.3709 59.4821 79.0773L69.3791 84.8219C70.6126 85.5379 71.3738 86.8703 71.3738 88.3134V99.7311C71.3738 101.174 70.6126 102.507 69.3791 103.223L59.4821 108.967C58.265 109.674 56.7709 109.674 55.5538 108.967L45.6568 103.223C44.4233 102.507 43.6621 101.174 43.6621 99.7311V88.3134Z" fill="white"/>
<path d="M29.1431 113.816C29.1431 112.373 29.9043 111.041 31.1378 110.325L41.0348 104.58C42.2519 103.874 43.746 103.874 44.963 104.58L54.8601 110.325C56.0935 111.041 56.8548 112.373 56.8548 113.816V125.234C56.8548 126.677 56.0935 128.009 54.8601 128.725L44.963 134.47C43.746 135.177 42.2519 135.177 41.0348 134.47L31.1378 128.725C29.9043 128.009 29.1431 126.677 29.1431 125.234V113.816Z" fill="white"/>
<path d="M14.6328 88.3134C14.6328 86.8703 15.394 85.5379 16.6275 84.8219L26.5245 79.0773C27.7416 78.3709 29.2357 78.3709 30.4528 79.0773L40.3498 84.8219C41.5833 85.5379 42.3445 86.8703 42.3445 88.3134V99.7311C42.3445 101.174 41.5833 102.507 40.3498 103.223L30.4528 108.967C29.2357 109.674 27.7416 109.674 26.5245 108.967L16.6275 103.223C15.394 102.507 14.6328 101.174 14.6328 99.7311V88.3134Z" fill="white"/>
<path d="M29.1431 62.9422C29.1431 61.4991 29.9043 60.1667 31.1378 59.4507L41.0348 53.7061C42.2519 52.9997 43.746 52.9997 44.963 53.7061L54.8601 59.4507C56.0935 60.1667 56.8548 61.4991 56.8548 62.9422V74.3599C56.8548 75.803 56.0935 77.1354 54.8601 77.8513L44.963 83.596C43.746 84.3024 42.2519 84.3024 41.0348 83.596L31.1378 77.8513C29.9043 77.1354 29.1431 75.803 29.1431 74.3599V62.9422Z" fill="white"/>
<path d="M0.114746 62.9421C0.114746 61.4991 0.875971 60.1667 2.10944 59.4507L12.0065 53.7061C13.2235 52.9996 14.7177 52.9996 15.9347 53.7061L25.8318 59.4507C27.0652 60.1667 27.8265 61.4991 27.8265 62.9421V74.3599C27.8265 75.8029 27.0652 77.1353 25.8318 77.8513L15.9347 83.5959C14.7177 84.3024 13.2235 84.3024 12.0065 83.5959L2.10944 77.8513C0.875971 77.1353 0.114746 75.8029 0.114746 74.3599V62.9421Z" fill="white"/>
<path d="M58.1763 62.9422C58.1763 61.4991 58.9375 60.1667 60.171 59.4507L70.068 53.7061C71.2851 52.9997 72.7792 52.9997 73.9962 53.7061L83.8933 59.4507C85.1268 60.1667 85.888 61.4991 85.888 62.9422V74.3599C85.888 75.803 85.1268 77.1354 83.8933 77.8513L73.9962 83.596C72.7792 84.3024 71.2851 84.3024 70.068 83.596L60.171 77.8513C58.9375 77.1354 58.1763 75.803 58.1763 74.3599V62.9422Z" fill="white"/>
<path fill-rule="evenodd" clip-rule="evenodd" d="M40.1274 7.4508C41.3921 4.51632 36.9323 1.89401 35.0019 1.39452C31.8734 0.582852 29.4106 2.33106 27.0808 4.57875C20.8238 10.3229 23.8857 19.3136 32.0731 23.4968C44.7869 29.8029 57.1678 21.9984 66.8862 16.0045C73.3429 12.5081 82.5287 3.89196 89.9839 7.70055C92.5133 8.94927 93.7115 12.1335 90.7161 14.1314C93.3787 16.1294 96.7069 13.1325 97.2394 9.94824C97.8385 6.63914 95.5753 3.4549 93.2456 1.89401C88.1867 -1.4151 81.73 0.582852 76.8708 3.57978C71.1463 7.2635 65.4883 13.2573 58.965 16.6289C53.9727 19.1888 47.9819 21.8111 42.0577 22.1232C37.132 22.5603 28.4787 18.939 28.0127 12.9452C27.6133 5.64016 35.601 3.89196 39.9277 7.76298C39.9943 7.70055 40.0608 7.57568 40.1274 7.4508Z" fill="white"/>
</svg>
