<svg width="98" height="135" fill="none" xmlns="http://www.w3.org/2000/svg"><path d="M43.662 37.705c0-1.444.761-2.776 1.995-3.492l9.897-5.745a3.906 3.906 0 0 1 3.928 0l9.897 5.745a4.033 4.033 0 0 1 1.995 3.492v11.417a4.033 4.033 0 0 1-1.995 3.492l-9.897 5.744a3.906 3.906 0 0 1-3.928 0l-9.897-5.744a4.033 4.033 0 0 1-1.995-3.492V37.705zm-29.029 0c0-1.444.761-2.776 1.995-3.492l9.896-5.745a3.906 3.906 0 0 1 3.929 0l9.897 5.745a4.033 4.033 0 0 1 1.994 3.492v11.417a4.033 4.033 0 0 1-1.994 3.492l-9.897 5.744a3.906 3.906 0 0 1-3.928 0l-9.897-5.744a4.033 4.033 0 0 1-1.995-3.492V37.705zm29.029 50.608c0-1.443.761-2.775 1.995-3.491l9.897-5.745a3.906 3.906 0 0 1 3.928 0l9.897 5.745a4.033 4.033 0 0 1 1.995 3.491v11.418a4.034 4.034 0 0 1-1.995 3.492l-9.897 5.744a3.903 3.903 0 0 1-3.928 0l-9.897-5.744a4.034 4.034 0 0 1-1.995-3.492V88.313zm-14.519 25.503c0-1.443.761-2.775 1.995-3.491l9.897-5.745a3.908 3.908 0 0 1 3.928 0l9.897 5.745a4.032 4.032 0 0 1 1.995 3.491v11.418a4.032 4.032 0 0 1-1.995 3.491l-9.897 5.745a3.903 3.903 0 0 1-3.928 0l-9.897-5.745a4.032 4.032 0 0 1-1.995-3.491v-11.418zm-14.51-25.503c0-1.443.761-2.775 1.995-3.491l9.896-5.745a3.906 3.906 0 0 1 3.929 0l9.897 5.745a4.033 4.033 0 0 1 1.994 3.491v11.418a4.034 4.034 0 0 1-1.994 3.492l-9.897 5.744a3.903 3.903 0 0 1-3.928 0l-9.897-5.744a4.034 4.034 0 0 1-1.995-3.492V88.313zm14.51-25.371c0-1.443.761-2.775 1.995-3.491l9.897-5.745a3.906 3.906 0 0 1 3.928 0l9.897 5.745a4.033 4.033 0 0 1 1.995 3.491V74.36a4.033 4.033 0 0 1-1.995 3.491l-9.897 5.745a3.906 3.906 0 0 1-3.928 0l-9.897-5.745a4.033 4.033 0 0 1-1.995-3.491V62.942zm-29.028 0c0-1.443.761-2.775 1.994-3.491l9.898-5.745a3.905 3.905 0 0 1 3.928 0l9.897 5.745a4.033 4.033 0 0 1 1.994 3.491V74.36a4.033 4.033 0 0 1-1.994 3.491l-9.897 5.745a3.905 3.905 0 0 1-3.928 0L2.109 77.85a4.033 4.033 0 0 1-1.994-3.49V62.942zm58.061 0c0-1.443.761-2.775 1.995-3.491l9.897-5.745a3.906 3.906 0 0 1 3.928 0l9.897 5.745a4.033 4.033 0 0 1 1.995 3.491V74.36a4.033 4.033 0 0 1-1.995 3.491l-9.897 5.745a3.906 3.906 0 0 1-3.928 0l-9.897-5.745a4.033 4.033 0 0 1-1.995-3.491V62.942z" fill="#fff"/><path fill-rule="evenodd" clip-rule="evenodd" d="M40.127 7.45c1.265-2.934-3.195-5.556-5.125-6.055-3.129-.812-5.591.936-7.921 3.184-6.257 5.744-3.195 14.735 4.992 18.918 12.714 6.306 25.095-1.499 34.813-7.492C73.343 12.508 82.53 3.892 89.984 7.7c2.53 1.248 3.728 4.433.732 6.43 2.663 1.998 5.99-.998 6.523-4.183.6-3.309-1.664-6.493-3.993-8.054C88.186-1.416 81.73.583 76.87 3.58c-5.725 3.683-11.383 9.677-17.906 13.049-4.992 2.56-10.983 5.182-16.907 5.494-4.926.437-13.58-3.184-14.045-9.178-.4-7.305 7.588-9.053 11.915-5.182.066-.062.133-.187.2-.312z" fill="#fff"/></svg>