<svg width="595" height="133" fill="none" xmlns="http://www.w3.org/2000/svg"><path d="M35.108 52.199c0 3.987-.718 6.947-2.022 8.88-1.37 1.934-3.064 3.202-5.086 3.807 2.021.483 3.717 1.752 5.086 3.685 1.304 1.933 2.022 4.894 2.022 8.881v38.484c0 2.779-.522 5.136-1.435 7.129a14.719 14.719 0 0 1-3.652 4.954c-1.434 1.329-3.13 2.296-5.02 2.9-1.891.604-3.848.967-5.87.967H.158V1.087h18.975c2.021 0 3.978.363 5.868.967 1.892.604 3.587 1.631 5.021 2.96 1.5 1.39 2.74 3.202 3.652 5.377.913 2.175 1.435 4.773 1.435 7.734v34.074zm-9.325 25.797c0-6.585-2.087-9.908-6.26-9.908H9.416v56.488h8.933c1.891 0 3.587-.846 5.152-2.417 1.5-1.631 2.282-4.169 2.282-7.491V77.996zm-6.26-16.493c4.173 0 6.26-3.263 6.26-9.909v-32.14c0-3.988-.782-6.827-2.282-8.519-1.565-1.692-3.26-2.537-5.152-2.537H9.416v53.104h10.107zM52.061 1.087v124.214h17.541v6.585H42.737V1.087h9.324zm45.58 93.523H82.904l-3.782 37.276h-8.281L84.534 1.087h12.129l13.954 130.799h-9.129L97.641 94.61zm-13.89-6.525H96.86l-6.456-62.107h-.196l-6.455 62.107zm47.602 44.888c-1.826 0-3.782-.302-5.738-.906-1.956-.664-3.652-1.631-5.152-3.021-1.434-1.389-2.673-3.141-3.586-5.316-.978-2.175-1.435-4.773-1.435-7.794V17.037c0-3.02.457-5.619 1.435-7.794.913-2.174 2.152-3.926 3.586-5.316 1.5-1.39 3.196-2.356 5.152-3.02C127.571.301 129.527 0 131.353 0h3.065c1.891 0 3.782.302 5.673.906 1.825.665 3.586 1.631 5.151 3.021 1.5 1.39 2.739 3.142 3.717 5.316.913 2.175 1.369 4.773 1.369 7.794V53.89h-9.259V18.306c0-3.988-.783-6.827-2.348-8.519-1.499-1.631-3.26-2.477-5.086-2.477h-1.434c-1.891 0-3.587.846-5.152 2.477-1.565 1.692-2.347 4.531-2.347 8.519v96.362c0 3.987.782 6.827 2.347 8.518 1.565 1.692 3.261 2.477 5.152 2.477h1.434c1.826 0 3.587-.785 5.086-2.477 1.565-1.691 2.348-4.531 2.348-8.518V78.902h9.259v37.034c0 3.021-.456 5.619-1.369 7.794-.978 2.175-2.217 3.927-3.717 5.316-1.565 1.39-3.326 2.357-5.151 3.021a18.554 18.554 0 0 1-5.673.906h-3.065zm43.428-69.175l20.801 68.088h-8.673l-18.584-56.488h-.195v56.488h-9.26V1.087h9.26v54.616h.195l19.171-54.616h8.477l-21.192 62.711zm61.359-11.6c0 3.988-.652 6.948-2.021 8.882-1.304 1.933-3 3.201-5.021 3.806 2.021.483 3.717 1.752 5.021 3.685 1.369 1.933 2.021 4.894 2.021 8.881v38.484c0 2.779-.456 5.136-1.369 7.129-.978 1.994-2.152 3.625-3.652 4.954a14.308 14.308 0 0 1-5.021 2.9c-1.891.604-3.847.967-5.868.967h-18.975V1.087h18.975c2.021 0 3.977.363 5.868.967 1.826.604 3.522 1.631 5.021 2.96 1.5 1.39 2.674 3.202 3.652 5.377.913 2.175 1.369 4.773 1.369 7.734v34.074zm-9.259 25.798c0-6.585-2.087-9.908-6.26-9.908h-10.107v56.488h8.868c1.891 0 3.652-.846 5.152-2.417 1.564-1.631 2.347-4.169 2.347-7.491V77.996zm-6.26-16.493c4.173 0 6.26-3.263 6.26-9.909v-32.14c0-3.988-.783-6.827-2.347-8.519-1.5-1.692-3.261-2.537-5.152-2.537h-8.868v53.104h10.107zm32.473-53.105v54.796h14.541v6.585h-14.541v54.797h19.627v7.31h-28.886V1.087h28.039v7.31h-18.78zm61.229 45.673c0 3.988-.717 6.948-2.021 8.881-1.369 1.934-3.065 3.202-5.086 3.807 2.021.483 3.717 1.752 5.086 3.685 1.304 1.933 2.021 4.894 2.021 8.88v32.323c0 6.766.196 11.539.652 14.439.522 2.84.848 4.773 1.109 5.8h-9.259c-.652-1.631-1.174-3.927-1.435-6.948-.261-2.96-.391-7.431-.391-13.291V80.05c0-6.706-2.087-10.09-6.26-10.09h-10.107v61.926h-9.26V1.087h18.976c4.303 0 8.02 1.45 11.215 4.23 3.13 2.839 4.76 7.068 4.76 12.808V54.07zm-15.584 9.304c4.173 0 6.26-3.262 6.26-9.908V19.454c0-3.988-.783-6.827-2.348-8.519-1.499-1.692-3.26-2.537-5.086-2.537h-8.933v54.977h10.107zm60.186-9.304c0 3.988-.717 6.948-2.022 8.881-1.369 1.934-3.064 3.202-5.086 3.807 2.022.483 3.717 1.752 5.086 3.685 1.305 1.933 2.022 4.894 2.022 8.88v32.323c0 6.766.195 11.539.717 14.439.457 2.84.783 4.773 1.109 5.8h-9.325c-.652-1.631-1.108-3.927-1.369-6.948-.326-2.96-.457-7.431-.457-13.291V80.05c0-6.706-2.086-10.09-6.26-10.09h-10.041v61.926h-9.325V1.087h18.975c4.304 0 8.021 1.45 11.216 4.23 3.13 2.839 4.76 7.068 4.76 12.808V54.07zm-15.585 9.304c4.174 0 6.26-3.262 6.26-9.908V19.454c0-3.988-.782-6.827-2.282-8.519-1.565-1.692-3.26-2.537-5.151-2.537h-8.868v54.977h10.041zm44.863 18.004l-.196 50.507h-9.324V81.379L363.555 1.087h9.455l10.107 60.234h.391l10.107-60.234h9.52L388.203 81.38zm80.291-80.231v130.738h-9.301V69.779h-15.392v62.107h-9.366V1.148h9.366v62.046h15.392V1.148h9.301zm18.471 0v130.738h-9.301V1.148h9.301zm18.275 0V125.3h17.619v6.585h-26.986V1.148h9.367zm32.029 0V125.3h17.62v6.585h-26.921V1.148h9.301zm48.077 52.742V18.306c0-3.988-.786-6.827-2.293-8.458-1.571-1.692-3.274-2.538-5.108-2.538h-1.441c-1.834 0-3.537.846-5.109 2.538-1.507 1.63-2.293 4.47-2.293 8.458v18.547c0 5.86 1.376 11.056 4.061 15.587a141.025 141.025 0 0 0 8.842 13.291c3.144 4.29 6.092 8.76 8.777 13.292 2.751 4.531 4.061 9.848 4.061 15.829v21.145c0 2.96-.458 5.558-1.375 7.733-.983 2.175-2.227 3.987-3.734 5.316a12.625 12.625 0 0 1-5.109 3.021c-1.834.604-3.798.906-5.894.906h-2.817c-1.965 0-3.864-.302-5.829-.906-1.965-.604-3.734-1.631-5.306-3.021-1.572-1.329-2.816-3.141-3.799-5.316-.917-2.175-1.375-4.773-1.375-7.733V79.144h8.711v35.524c0 3.987.852 6.827 2.489 8.518 1.703 1.692 3.472 2.538 5.306 2.538h1.441c1.834 0 3.602-.846 5.305-2.538 1.637-1.691 2.489-4.531 2.489-8.518V95.939c0-3.866-.655-7.431-1.965-10.633a48.115 48.115 0 0 0-4.716-9.243c-1.899-2.96-3.995-5.8-6.222-8.64-2.227-2.779-4.258-5.679-6.157-8.7-1.9-2.96-3.472-6.162-4.782-9.545-1.31-3.323-1.899-7.008-1.899-10.996V17.037c0-3.02.458-5.618 1.375-7.793.983-2.175 2.227-3.927 3.668-5.317 1.507-1.39 3.275-2.356 5.24-3.02 1.965-.605 3.93-.907 5.83-.907h2.227c1.899 0 3.798.302 5.698.906 1.899.665 3.668 1.631 5.174 3.021a14.556 14.556 0 0 1 3.799 5.317c.983 2.175 1.441 4.772 1.441 7.793V53.89h-8.711z" fill="#fff"/></svg>