<svg width="185" height="34" viewBox="0 0 185 34" fill="none" xmlns="http://www.w3.org/2000/svg">
<path fill-rule="evenodd" clip-rule="evenodd" d="M7.0963 20.3012L7.60323 20.4114L10.4082 22.0647L10.5772 22.5529L10.5434 25.6548L10.2055 26.0327L7.38356 27.4813L6.85973 27.3711L4.05472 25.702L3.88574 25.2139L3.91954 22.112L4.25749 21.7498L7.0963 20.3012Z" fill="white"/>
<path fill-rule="evenodd" clip-rule="evenodd" d="M10.8654 26.8041L11.3893 26.9301L14.1774 28.5834L14.3633 29.0715L14.3295 32.1735L13.9746 32.5514L11.1527 34L10.6289 33.874L8.00016 32.5L7.70558 32V28.6307L8.04354 28.2528L10.8654 26.8041Z" fill="white"/>
<path fill-rule="evenodd" clip-rule="evenodd" d="M14.8538 20.3649L15.3776 20.4908L18.1658 22.1442L18.3516 22.6323L18.3178 25.7342L17.963 26.1121L15.1411 27.5607L14.6172 27.4348L11.8291 25.7815L11.6602 25.2933L11.694 22.1914L12.0319 21.8135L14.8538 20.3649Z" fill="white"/>
<path fill-rule="evenodd" clip-rule="evenodd" d="M10.7132 13.6085L11.237 13.7345L14.0251 15.3878L14.1941 15.8759L14.1772 18.9779L13.8224 19.3558L11.0004 20.8044L10.4766 20.6942L7.68851 19.0251L7.51953 18.537L7.53643 15.435L7.89128 15.0729L10.7132 13.6085Z" fill="white"/>
<path fill-rule="evenodd" clip-rule="evenodd" d="M3.19366 13.3411L3.71748 13.4513L6.5056 15.1047L6.69147 15.5928L6.65767 18.6947L6.30282 19.0726L3.48092 20.5213L2.97399 20.411L0.168977 18.742L0 18.2538L0.0337953 15.1519L0.371748 14.7897L3.19366 13.3411Z" fill="white"/>
<path fill-rule="evenodd" clip-rule="evenodd" d="M18.1658 13.7823L18.6897 13.8925L21.4778 15.5458L21.6636 16.0339L21.6298 19.1359L21.275 19.5138L18.4531 20.9624L17.9293 20.8522L15.1411 19.1989L14.9722 18.7107L15.006 15.6088L15.3439 15.2309L18.1658 13.7823Z" fill="white"/>
<path fill-rule="evenodd" clip-rule="evenodd" d="M7.13164 6.82367L7.65547 6.93389L10.4605 8.58721L10.6295 9.07533L10.5957 12.1773L10.2408 12.5552L7.4189 14.0038L6.91198 13.8936L4.10696 12.2245L3.93799 11.7364L3.97178 8.63445L4.30974 8.27229L7.13164 6.82367Z" fill="white"/>
<path fill-rule="evenodd" clip-rule="evenodd" d="M14.8538 6.91443L15.3776 7.02465L18.1658 8.67797L18.3347 9.16609L18.3178 12.268L17.963 12.6459L15.1411 14.0946L14.6173 13.9843L11.8291 12.331L11.6602 11.8429L11.6771 8.74095L12.0319 8.36305L14.8538 6.91443Z" fill="white"/>
<path fill-rule="evenodd" clip-rule="evenodd" d="M10.4773 1.83311C10.7984 1.09305 9.66623 0.431723 9.17619 0.305756C8.382 0.10106 7.75679 0.541945 7.16537 1.1088C5.57699 2.55742 6.35428 4.82483 8.4327 5.8798C11.6601 7.47014 14.8031 5.5019 17.2702 3.9903C18.9092 3.10853 21.2411 0.935592 23.1337 1.89609C23.7758 2.21101 24.0799 3.01405 23.3195 3.51792C23.9954 4.02179 24.8403 3.26598 24.9755 2.46294C25.1276 1.62841 24.5531 0.825371 23.9617 0.431723C22.6774 -0.402809 21.0384 0.10106 19.8048 0.856862C18.3516 1.78587 16.9153 3.29748 15.2594 4.14775C13.992 4.79334 12.4712 5.45466 10.9673 5.53339C9.71692 5.64361 7.52022 4.73035 7.40194 3.21875C7.30055 1.37648 9.32827 0.935592 10.4266 1.91184C10.4435 1.89609 10.4604 1.8646 10.4773 1.83311Z" fill="white"/>
<path d="M41.9333 13.3467C41.9333 14.3662 41.75 15.1231 41.4167 15.6174C41.0667 16.1118 40.6333 16.4362 40.1167 16.5906C40.6333 16.7142 41.0667 17.0386 41.4167 17.5329C41.75 18.0273 41.9333 18.7842 41.9333 19.8037V29.6438C41.9333 30.3544 41.8 30.9568 41.5667 31.4666C41.3333 31.9764 41.0167 32.3935 40.6333 32.7333C40.2667 33.0731 39.8333 33.3203 39.35 33.4748C38.8667 33.6293 38.3667 33.7219 37.85 33.7219H33V0.278055H37.85C38.3667 0.278055 38.8667 0.370741 39.35 0.525216C39.8333 0.679691 40.2667 0.942299 40.6333 1.28214C41.0167 1.63744 41.3333 2.10086 41.5667 2.65697C41.8 3.21308 41.9333 3.87733 41.9333 4.63426V13.3467ZM39.55 19.9428C39.55 18.259 39.0167 17.4094 37.95 17.4094H35.3667V31.8528H37.65C38.1333 31.8528 38.5667 31.6365 38.9667 31.2349C39.35 30.8178 39.55 30.169 39.55 29.3194V19.9428ZM37.95 15.7256C39.0167 15.7256 39.55 14.8914 39.55 13.1922V4.9741C39.55 3.95457 39.35 3.22853 38.9667 2.796C38.5667 2.36347 38.1333 2.14721 37.65 2.14721H35.3667V15.7256H37.95ZM46.2667 0.278055V32.0382H50.75V33.7219H43.8833V0.278055H46.2667ZM57.9167 24.1908H54.15L53.1833 33.7219H51.0667L54.5667 0.278055H57.6667L61.2333 33.7219H58.9L57.9167 24.1908ZM54.3667 22.5225H57.7167L56.0667 6.64244H56.0167L54.3667 22.5225ZM66.5333 34C66.0667 34 65.5667 33.9228 65.0667 33.7683C64.5667 33.5984 64.1333 33.3512 63.75 32.9959C63.3833 32.6406 63.0667 32.1926 62.8333 31.6365C62.5833 31.0804 62.4667 30.4162 62.4667 29.6438V4.3562C62.4667 3.58383 62.5833 2.91958 62.8333 2.36347C63.0667 1.80736 63.3833 1.35938 63.75 1.00409C64.1333 0.648796 64.5667 0.401636 65.0667 0.231713C65.5667 0.0772376 66.0667 0 66.5333 0H67.3167C67.8 0 68.2833 0.0772376 68.7667 0.231713C69.2333 0.401636 69.6833 0.648796 70.0833 1.00409C70.4667 1.35938 70.7833 1.80736 71.0333 2.36347C71.2667 2.91958 71.3833 3.58383 71.3833 4.3562V13.7792H69.0167V4.6806C69.0167 3.66106 68.8167 2.93503 68.4167 2.5025C68.0333 2.08542 67.5833 1.86915 67.1167 1.86915H66.75C66.2667 1.86915 65.8333 2.08542 65.4333 2.5025C65.0333 2.93503 64.8333 3.66106 64.8333 4.6806V29.3194C64.8333 30.3389 65.0333 31.065 65.4333 31.4975C65.8333 31.93 66.2667 32.1308 66.75 32.1308H67.1167C67.5833 32.1308 68.0333 31.93 68.4167 31.4975C68.8167 31.065 69.0167 30.3389 69.0167 29.3194V20.1745H71.3833V29.6438C71.3833 30.4162 71.2667 31.0804 71.0333 31.6365C70.7833 32.1926 70.4667 32.6406 70.0833 32.9959C69.6833 33.3512 69.2333 33.5984 68.7667 33.7683C68.2833 33.9228 67.8 34 67.3167 34H66.5333ZM77.6333 16.3126L82.95 33.7219H80.7333L75.9833 19.2785H75.9333V33.7219H73.5667V0.278055H75.9333V14.2426H75.9833L80.8833 0.278055H83.05L77.6333 16.3126ZM93.3167 13.3467C93.3167 14.3662 93.15 15.1231 92.8 15.6174C92.4667 16.1118 92.0333 16.4362 91.5167 16.5906C92.0333 16.7142 92.4667 17.0386 92.8 17.5329C93.15 18.0273 93.3167 18.7842 93.3167 19.8037V29.6438C93.3167 30.3544 93.2 30.9568 92.9667 31.4666C92.7167 31.9764 92.4167 32.3935 92.0333 32.7333C91.65 33.0731 91.2167 33.3203 90.75 33.4748C90.2667 33.6293 89.7667 33.7219 89.25 33.7219H84.4V0.278055H89.25C89.7667 0.278055 90.2667 0.370741 90.75 0.525216C91.2167 0.679691 91.65 0.942299 92.0333 1.28214C92.4167 1.63744 92.7167 2.10086 92.9667 2.65697C93.2 3.21308 93.3167 3.87733 93.3167 4.63426V13.3467ZM90.95 19.9428C90.95 18.259 90.4167 17.4094 89.35 17.4094H86.7667V31.8528H89.0333C89.5167 31.8528 89.9667 31.6365 90.35 31.2349C90.75 30.8178 90.95 30.169 90.95 29.3194V19.9428ZM89.35 15.7256C90.4167 15.7256 90.95 14.8914 90.95 13.1922V4.9741C90.95 3.95457 90.75 3.22853 90.35 2.796C89.9667 2.36347 89.5167 2.14721 89.0333 2.14721H86.7667V15.7256H89.35ZM97.65 2.14721V16.1581H101.367V17.8419H97.65V31.8528H102.667V33.7219H95.2833V0.278055H102.45V2.14721H97.65ZM113.3 13.8255C113.3 14.8451 113.117 15.602 112.783 16.0963C112.433 16.5906 112 16.915 111.483 17.0695C112 17.1931 112.433 17.5175 112.783 18.0118C113.117 18.5061 113.3 19.2631 113.3 20.2826V28.547C113.3 30.2771 113.35 31.4975 113.467 32.239C113.6 32.965 113.683 33.4593 113.75 33.7219H111.383C111.217 33.3049 111.083 32.7179 111.017 31.9455C110.95 31.1885 110.917 30.0454 110.917 28.547V20.468C110.917 18.7533 110.383 17.8882 109.317 17.8882H106.733V33.7219H104.367V0.278055H109.217C110.317 0.278055 111.267 0.648796 112.083 1.35938C112.883 2.08542 113.3 3.16674 113.3 4.63426V13.8255ZM109.317 16.2045C110.383 16.2045 110.917 15.3703 110.917 13.6711V4.9741C110.917 3.95457 110.717 3.22853 110.317 2.796C109.933 2.36347 109.483 2.14721 109.017 2.14721H106.733V16.2045H109.317ZM124.7 13.8255C124.7 14.8451 124.517 15.602 124.183 16.0963C123.833 16.5906 123.4 16.915 122.883 17.0695C123.4 17.1931 123.833 17.5175 124.183 18.0118C124.517 18.5061 124.7 19.2631 124.7 20.2826V28.547C124.7 30.2771 124.75 31.4975 124.883 32.239C125 32.965 125.083 33.4593 125.167 33.7219H122.783C122.617 33.3049 122.5 32.7179 122.433 31.9455C122.35 31.1885 122.317 30.0454 122.317 28.547V20.468C122.317 18.7533 121.783 17.8882 120.717 17.8882H118.15V33.7219H115.767V0.278055H120.617C121.717 0.278055 122.667 0.648796 123.483 1.35938C124.283 2.08542 124.7 3.16674 124.7 4.63426V13.8255ZM120.717 16.2045C121.783 16.2045 122.317 15.3703 122.317 13.6711V4.9741C122.317 3.95457 122.117 3.22853 121.733 2.796C121.333 2.36347 120.9 2.14721 120.417 2.14721H118.15V16.2045H120.717ZM132.183 20.8078L132.133 33.7219H129.75V20.8078L125.883 0.278055H128.3L130.883 15.6792H130.983L133.567 0.278055H136L132.183 20.8078Z" fill="white"/>
<path d="M152.706 0.293503V33.7219H150.328V17.8419H146.394V33.7219H144V0.293503H146.394V16.1581H150.328V0.293503H152.706ZM157.427 0.293503V33.7219H155.049V0.293503H157.427ZM162.098 0.293503V32.0382H166.601V33.7219H159.704V0.293503H162.098ZM170.284 0.293503V32.0382H174.788V33.7219H167.907V0.293503H170.284ZM182.572 13.7792V4.6806C182.572 3.66106 182.372 2.93503 181.987 2.51795C181.585 2.08542 181.149 1.86915 180.681 1.86915H180.312C179.844 1.86915 179.408 2.08542 179.007 2.51795C178.621 2.93503 178.421 3.66106 178.421 4.6806V9.42299C178.421 10.9214 178.772 12.2499 179.459 13.4085C180.145 14.5825 180.898 15.7101 181.719 16.8069C182.522 17.9037 183.276 19.0468 183.962 20.2054C184.665 21.3639 185 22.7233 185 24.2526V29.6592C185 30.4162 184.883 31.0804 184.648 31.6365C184.397 32.1926 184.079 32.6561 183.694 32.9959C183.326 33.3512 182.891 33.6138 182.388 33.7683C181.92 33.9228 181.417 34 180.882 34H180.162C179.659 34 179.174 33.9228 178.672 33.7683C178.169 33.6138 177.717 33.3512 177.316 32.9959C176.914 32.6561 176.596 32.1926 176.345 31.6365C176.11 31.0804 175.993 30.4162 175.993 29.6592V20.2363H178.22V29.3194C178.22 30.3389 178.437 31.065 178.856 31.4975C179.291 31.93 179.743 32.1463 180.212 32.1463H180.58C181.049 32.1463 181.501 31.93 181.936 31.4975C182.355 31.065 182.572 30.3389 182.572 29.3194V24.5307C182.572 23.542 182.405 22.6306 182.07 21.8119C181.752 20.9777 181.35 20.1899 180.865 19.4484C180.379 18.6915 179.844 17.9655 179.274 17.2394C178.705 16.5289 178.186 15.7874 177.701 15.015C177.215 14.2581 176.813 13.4393 176.479 12.5743C176.144 11.7247 175.993 10.7824 175.993 9.76283V4.3562C175.993 3.58383 176.11 2.91958 176.345 2.36347C176.596 1.80736 176.914 1.35938 177.282 1.00409C177.667 0.648796 178.119 0.401636 178.621 0.231713C179.124 0.0772376 179.626 0 180.111 0H180.681C181.166 0 181.652 0.0772376 182.137 0.231713C182.623 0.401636 183.075 0.648796 183.46 1.00409C183.862 1.35938 184.196 1.80736 184.431 2.36347C184.682 2.91958 184.799 3.58383 184.799 4.3562V13.7792H182.572Z" fill="white"/>
</svg>
