<svg width="70" height="70" viewBox="0 0 70 70" fill="none" xmlns="http://www.w3.org/2000/svg">
<circle cx="35" cy="35" r="35" fill="white"/>
<path d="M25.2538 17.1927C24.8428 16.799 24.8428 16.1422 25.2538 15.7485L26.3872 14.6627C26.7739 14.2922 27.384 14.2922 27.7707 14.6627L49 35L47.1128 36.8079C46.7261 37.1784 46.116 37.1784 45.7293 36.8079L25.2538 17.1927Z" fill="#39071F"/>
<path d="M27.7707 55.3373C27.384 55.7078 26.7739 55.7078 26.3872 55.3373L25.2538 54.2515C24.8428 53.8578 24.8428 53.201 25.2538 52.8073L45.7293 33.1921C46.116 32.8216 46.7261 32.8216 47.1128 33.1921L49 35L27.7707 55.3373Z" fill="#39071F"/>
</svg>
