<svg width="346" height="108" fill="none" xmlns="http://www.w3.org/2000/svg"><g filter="url(#filter0_d)" fill="#fff"><path d="M37.434 42.975c0 2.064-.371 3.596-1.046 4.596-.709 1-1.586 1.657-2.631 1.97 1.045.25 1.922.907 2.63 1.907.675 1 1.047 2.533 1.047 4.596v19.917c0 1.438-.27 2.657-.742 3.69a7.618 7.618 0 0 1-1.89 2.563 6.855 6.855 0 0 1-2.597 1.5c-.978.313-1.99.5-3.036.5h-9.817v-67.69h9.817c1.046 0 2.058.188 3.036.5a6.922 6.922 0 0 1 2.597 1.533c.776.719 1.417 1.657 1.89 2.782.472 1.126.742 2.47.742 4.003v17.633zm-4.824 13.35c0-3.407-1.08-5.127-3.239-5.127h-5.228v29.234h4.621c.978 0 1.855-.438 2.665-1.25.776-.845 1.18-2.158 1.18-3.878V56.326zm-3.24-8.535c2.16 0 3.239-1.688 3.239-5.127V26.029c0-2.063-.405-3.533-1.18-4.408-.81-.876-1.688-1.313-2.666-1.313h-4.621V47.79h5.228zm16.833-31.265v64.282h9.075v3.408H41.38v-67.69h4.824zm23.58 48.399H62.16l-1.956 19.29h-4.285l7.084-67.69h6.275l7.219 67.69h-4.723l-1.99-19.29zm-7.185-3.377h6.78l-3.34-32.141h-.1l-3.34 32.141zm24.625 23.23a10.14 10.14 0 0 1-2.969-.468c-1.012-.344-1.889-.844-2.664-1.564a8.209 8.209 0 0 1-1.856-2.751c-.506-1.126-.742-2.47-.742-4.033V24.779c0-1.564.236-2.908.742-4.034a8.209 8.209 0 0 1 1.856-2.751c.775-.72 1.652-1.22 2.664-1.563a10.143 10.143 0 0 1 2.969-.47h1.585a9.58 9.58 0 0 1 2.935.47 8.19 8.19 0 0 1 2.665 1.563c.776.72 1.417 1.626 1.923 2.751.472 1.126.708 2.47.708 4.034V43.85h-4.79V25.435c0-2.063-.405-3.533-1.214-4.408-.776-.844-1.687-1.282-2.631-1.282h-.743c-.978 0-1.855.438-2.664 1.282-.81.875-1.215 2.345-1.215 4.408v49.87c0 2.063.405 3.532 1.215 4.408.81.875 1.686 1.282 2.664 1.282h.743c.944 0 1.855-.407 2.63-1.282.81-.876 1.215-2.345 1.215-4.409v-18.51h4.79v19.167c0 1.563-.236 2.907-.708 4.033-.506 1.126-1.147 2.032-1.923 2.751a8.19 8.19 0 0 1-2.665 1.564 9.591 9.591 0 0 1-2.935.469h-1.585zm22.466-35.799l10.761 35.237h-4.486l-9.614-29.234h-.101v29.234h-4.791v-67.69h4.791v28.264h.101l9.917-28.265h4.386L109.69 48.978zm31.743-6.003c0 2.064-.337 3.596-1.045 4.596-.675 1-1.552 1.657-2.598 1.97 1.046.25 1.923.907 2.598 1.907.708 1 1.045 2.533 1.045 4.596v19.917c0 1.438-.236 2.657-.708 3.69-.506 1.03-1.113 1.875-1.889 2.563a7.407 7.407 0 0 1-2.598 1.5c-.978.313-1.99.5-3.036.5h-9.816v-67.69h9.816c1.046 0 2.058.188 3.036.5.945.313 1.822.845 2.598 1.533.776.719 1.383 1.657 1.889 2.782.472 1.126.708 2.47.708 4.003v17.633zm-4.79 13.35c0-3.407-1.079-5.127-3.238-5.127h-5.229v29.234h4.588c.978 0 1.889-.438 2.665-1.25.809-.845 1.214-2.158 1.214-3.878V56.326zm-3.238-8.535c2.159 0 3.238-1.688 3.238-5.127V26.029c0-2.063-.405-3.533-1.214-4.408-.776-.876-1.687-1.313-2.665-1.313h-4.588V47.79h5.229zm16.799-27.482v28.358h7.523v3.408h-7.523v28.358h10.154v3.783h-14.944v-67.69h14.505v3.783h-9.715zm31.676 23.637c0 2.063-.371 3.595-1.046 4.596-.708 1-1.586 1.657-2.631 1.97 1.045.25 1.923.906 2.631 1.907.675 1 1.046 2.532 1.046 4.596V73.74c0 3.502.101 5.972.337 7.472.27 1.47.439 2.47.573 3.002H178c-.337-.844-.607-2.032-.742-3.596-.135-1.532-.202-3.845-.202-6.878V57.389c0-3.47-1.08-5.222-3.239-5.222h-5.228v32.048h-4.79v-67.69h9.816c2.226 0 4.149.75 5.802 2.188 1.619 1.47 2.463 3.658 2.463 6.628v18.604zm-8.063 4.815c2.159 0 3.239-1.689 3.239-5.128V26.029c0-2.063-.405-3.533-1.215-4.408-.775-.876-1.686-1.313-2.631-1.313h-4.621V48.76h5.228zm31.136-4.815c0 2.063-.371 3.595-1.045 4.596-.709 1-1.586 1.657-2.632 1.97 1.046.25 1.923.906 2.632 1.907.674 1 1.045 2.532 1.045 4.596V73.74c0 3.502.101 5.972.371 7.472.236 1.47.405 2.47.574 3.002h-4.824c-.337-.844-.574-2.032-.708-3.596-.169-1.532-.237-3.845-.237-6.878V57.389c0-3.47-1.079-5.222-3.238-5.222h-5.195v32.048h-4.824v-67.69h9.817c2.226 0 4.149.75 5.802 2.188 1.619 1.47 2.462 3.658 2.462 6.628v18.604zm-8.062 4.815c2.159 0 3.238-1.689 3.238-5.128V26.029c0-2.063-.404-3.533-1.18-4.408-.81-.876-1.687-1.313-2.665-1.313h-4.588V48.76h5.195zm23.209 9.317l-.102 26.138h-4.824V58.077l-7.826-41.552h4.892l5.228 31.172h.203l5.228-31.173h4.925L220.1 58.078zm41.537-41.521v67.659h-4.812V52.074h-7.963v32.14h-4.845V16.557h4.845v32.11h7.963v-32.11h4.812zm9.555 0v67.659h-4.811v-67.66h4.811zm9.454 0v64.25h9.115v3.409H275.8v-67.66h4.845zm16.57 0v64.25h9.115v3.409h-13.927v-67.66h4.812zm24.871 27.295V25.435c0-2.063-.406-3.533-1.186-4.377-.813-.875-1.694-1.313-2.643-1.313h-.745c-.949 0-1.83.438-2.643 1.313-.78.844-1.186 2.314-1.186 4.377v9.599c0 3.033.711 5.721 2.101 8.066a72.91 72.91 0 0 0 4.574 6.879 84.954 84.954 0 0 1 4.541 6.878c1.423 2.345 2.101 5.097 2.101 8.192v10.943c0 1.532-.238 2.876-.712 4.002-.508 1.126-1.152 2.064-1.931 2.751a6.54 6.54 0 0 1-2.643 1.564 9.688 9.688 0 0 1-3.05.469h-1.457c-1.017 0-1.999-.157-3.016-.47a7.424 7.424 0 0 1-2.745-1.563c-.813-.687-1.457-1.625-1.965-2.751-.474-1.126-.711-2.47-.711-4.002V56.92h4.506v18.384c0 2.064.441 3.533 1.288 4.409.881.875 1.796 1.313 2.745 1.313h.745c.949 0 1.864-.438 2.745-1.313.847-.876 1.287-2.345 1.287-4.409v-9.692c0-2.001-.339-3.846-1.016-5.503a24.9 24.9 0 0 0-2.44-4.784c-.983-1.532-2.067-3.001-3.219-4.47a48.093 48.093 0 0 1-3.185-4.503c-.983-1.532-1.796-3.189-2.474-4.94-.677-1.72-.982-3.627-.982-5.69V24.779c0-1.564.237-2.908.711-4.034.508-1.125 1.152-2.032 1.898-2.751.779-.72 1.694-1.22 2.71-1.563a10.284 10.284 0 0 1 3.016-.47h1.152c.983 0 1.966.157 2.948.47.983.344 1.898.844 2.677 1.563a7.544 7.544 0 0 1 1.966 2.751c.508 1.126.745 2.47.745 4.034V43.85h-4.507z"/></g><defs><filter id="filter0_d" x=".353" y=".962" width="345.647" height="106.816" filterUnits="userSpaceOnUse" color-interpolation-filters="sRGB"><feFlood flood-opacity="0" result="BackgroundImageFix"/><feColorMatrix in="SourceAlpha" values="0 0 0 0 0 0 0 0 0 0 0 0 0 0 0 0 0 0 127 0"/><feOffset dy="4"/><feGaussianBlur stdDeviation="9.5"/><feColorMatrix values="0 0 0 0 0 0 0 0 0 0 0 0 0 0 0 0 0 0 0.25 0"/><feBlend in2="BackgroundImageFix" result="effect1_dropShadow"/><feBlend in="SourceGraphic" in2="effect1_dropShadow" result="shape"/></filter></defs></svg>