<svg width="210" height="85" fill="none" xmlns="http://www.w3.org/2000/svg"><path transform="matrix(-1 0 0 1 210 46)" fill="url(#paint0_linear)" fill-opacity=".6" d="M0 0h100v1H0z"/><path transform="matrix(-1 0 0 1 154 38)" fill="url(#paint1_linear)" fill-opacity=".6" d="M0 0h39v1H0z"/><path transform="matrix(-1 0 0 1 210 31)" fill="url(#paint2_linear)" fill-opacity=".6" d="M0 0h98v1H0z"/><path fill="url(#paint3_linear)" fill-opacity=".6" d="M0 46h100v1H0z"/><path fill="url(#paint4_linear)" fill-opacity=".6" d="M56 38h39v1H56z"/><path fill="url(#paint5_linear)" fill-opacity=".6" d="M0 31h99v1H0z"/><g filter="url(#filter0_d)" fill="#fff" stroke="#000" stroke-width=".014"><path d="M97.772 43.365l3.176-1.62.564.122 3.139 1.85.188.543-.038 3.47-.376.42-3.157 1.62-.583-.122-3.138-1.867-.188-.543.038-3.47.375-.403zm4.24 7.283l3.157-1.62.583.14 3.119 1.85.207.543-.038 3.47-.394.42-3.157 1.62-.584-.14-2.941-1.537-.328-.557v-3.769l.376-.42zm4.468-7.212l3.157-1.62.583.14 3.12 1.85.207.543-.038 3.47-.395.42-3.157 1.62-.583-.14-3.119-1.85-.188-.542.037-3.47.376-.42zm-4.638-7.549L105 34.249l.583.14 3.119 1.85.188.543-.019 3.47-.394.42-3.158 1.62-.583-.122-3.119-1.867-.188-.543.019-3.47.394-.403zm-8.422-.317l3.158-1.62.583.122 3.119 1.85.207.543-.038 3.47-.394.42-3.157 1.62-.565-.122-3.138-1.867-.188-.543.038-3.47.376-.403zm16.768.494l3.157-1.62.583.122 3.12 1.85.207.543-.038 3.47-.395.42-3.157 1.62-.583-.122-3.119-1.85-.188-.543.037-3.47.376-.42zM97.83 28.27l3.158-1.62.583.123 3.138 1.85.188.542-.037 3.47-.395.42-3.157 1.621-.564-.122-3.139-1.868-.188-.543.038-3.47.376-.402zm8.65.102l3.157-1.62.583.122 3.12 1.85.188.543-.019 3.47-.395.42-3.157 1.621-.583-.123-3.119-1.85-.188-.542.019-3.47.394-.42zm13.788-5.48c-.346.25-.765.321-1.138.048.421-.283.548-.649.479-.989-.069-.342-.336-.657-.697-.834-1.063-.54-2.248-.198-3.396.4-.574.298-1.139.662-1.675 1.012l-.145.094c-.482.316-.94.615-1.357.84h0l-.097.059c-1.358.832-2.894 1.774-4.531 2.301-1.676.54-3.458.645-5.263-.244-1.163-.59-1.961-1.519-2.246-2.502-.286-.983-.06-2.02.828-2.83h0c.662-.635 1.36-1.126 2.245-.898h0c.274.07.727.29 1.067.596.34.306.564.695.386 1.105a.9.9 0 0 1-.028.05.183.183 0 0 1-.023.031 2.268 2.268 0 0 0-2.199-.448c-.711.245-1.252.887-1.195 1.922h0c.067.85.717 1.531 1.525 1.983.807.453 1.774.678 2.476.616 1.686-.088 3.39-.83 4.809-1.552h0c.928-.477 1.795-1.139 2.632-1.81l.423-.342c.689-.558 1.361-1.102 2.037-1.534 1.381-.847 3.213-1.409 4.648-.477.661.44 1.302 1.337 1.132 2.268h0a1.829 1.829 0 0 1-.697 1.135z"/></g><defs><filter id="filter0_d" x="70" y="0" width="74" height="84.079" filterUnits="userSpaceOnUse" color-interpolation-filters="sRGB"><feFlood flood-opacity="0" result="BackgroundImageFix"/><feColorMatrix in="SourceAlpha" values="0 0 0 0 0 0 0 0 0 0 0 0 0 0 0 0 0 0 127 0"/><feOffset dy="4"/><feGaussianBlur stdDeviation="11.5"/><feColorMatrix values="0 0 0 0 0 0 0 0 0 0 0 0 0 0 0 0 0 0 0.37 0"/><feBlend in2="BackgroundImageFix" result="effect1_dropShadow"/><feBlend in="SourceGraphic" in2="effect1_dropShadow" result="shape"/></filter><linearGradient id="paint0_linear" x1="100" y1="1" x2="0" y2="1" gradientUnits="userSpaceOnUse"><stop stop-color="#fff"/><stop offset="1" stop-color="#fff" stop-opacity="0"/></linearGradient><linearGradient id="paint1_linear" x1="39" y1="1" x2="0" y2="1" gradientUnits="userSpaceOnUse"><stop stop-color="#fff"/><stop offset="1" stop-color="#fff" stop-opacity="0"/></linearGradient><linearGradient id="paint2_linear" x1="98" y1="1" x2="0" y2="1" gradientUnits="userSpaceOnUse"><stop stop-color="#fff"/><stop offset="1" stop-color="#fff" stop-opacity="0"/></linearGradient><linearGradient id="paint3_linear" x1="100" y1="47" x2="0" y2="47" gradientUnits="userSpaceOnUse"><stop stop-color="#fff"/><stop offset="1" stop-color="#fff" stop-opacity="0"/></linearGradient><linearGradient id="paint4_linear" x1="95" y1="39" x2="56" y2="39" gradientUnits="userSpaceOnUse"><stop stop-color="#fff"/><stop offset="1" stop-color="#fff" stop-opacity="0"/></linearGradient><linearGradient id="paint5_linear" x1="99" y1="32" x2="0" y2="32" gradientUnits="userSpaceOnUse"><stop stop-color="#fff"/><stop offset="1" stop-color="#fff" stop-opacity="0"/></linearGradient></defs></svg>